HIERARCHY
ROOT Hips
{
	OFFSET -0.001795 -0.223333 0.028219
	CHANNELS 6 Xposition Yposition Zposition Zrotation Yrotation Xrotation 
	JOINT LeftUpLeg
	{
		OFFSET 0.069520 -0.091406 -0.006815
		CHANNELS 3 Zrotation Yrotation Xrotation
		JOINT LeftLeg
		{
			OFFSET 0.034277 -0.375199 -0.004496
			CHANNELS 3 Zrotation Yrotation Xrotation
			JOINT LeftFoot
			{
				OFFSET -0.013596 -0.397961 -0.043693
				CHANNELS 3 Zrotation Yrotation Xrotation
				JOINT LeftToe
				{
					OFFSET 0.026358 -0.055791 0.119288
					CHANNELS 3 Zrotation Yrotation Xrotation
					End Site
					{
						OFFSET 0.000000 0.000000 0.000000
					}
				}
			}
		}
	}
	JOINT RightUpLeg
	{
		OFFSET -0.067670 -0.090522 -0.004320
		CHANNELS 3 Zrotation Yrotation Xrotation
		JOINT RightLeg
		{
			OFFSET -0.038290 -0.382569 -0.008850
			CHANNELS 3 Zrotation Yrotation Xrotation
			JOINT RightFoot
			{
				OFFSET 0.015774 -0.398415 -0.042312
				CHANNELS 3 Zrotation Yrotation Xrotation
				JOINT RightToe
				{
					OFFSET -0.025372 -0.048144 0.123348
					CHANNELS 3 Zrotation Yrotation Xrotation
					End Site
					{
						OFFSET 0.000000 0.000000 0.000000
					}
				}
			}
		}
	}
	JOINT Spine
	{
		OFFSET -0.002533 0.108963 -0.026696
		CHANNELS 3 Zrotation Yrotation Xrotation
		JOINT Spine1
		{
			OFFSET 0.005487 0.135180 0.001092
			CHANNELS 3 Zrotation Yrotation Xrotation
			JOINT Spine2
			{
				OFFSET 0.001457 0.052922 0.025425
				CHANNELS 3 Zrotation Yrotation Xrotation
				JOINT Neck
				{
					OFFSET -0.002778 0.213870 -0.042857
					CHANNELS 3 Zrotation Yrotation Xrotation
					JOINT Head
					{
						OFFSET 0.005152 0.064970 0.051349
						CHANNELS 3 Zrotation Yrotation Xrotation
						End Site
						{
							OFFSET 0.000000 0.000000 0.000000
						}
					}
				}
				JOINT LeftShoulder
				{
					OFFSET 0.078845 0.121749 -0.034090
					CHANNELS 3 Zrotation Yrotation Xrotation
					JOINT LeftArm
					{
						OFFSET 0.090977 0.030469 -0.008868
						CHANNELS 3 Zrotation Yrotation Xrotation
						JOINT LeftForeArm
						{
							OFFSET 0.259612 -0.012772 -0.027456
							CHANNELS 3 Zrotation Yrotation Xrotation
							JOINT LeftHand
							{
								OFFSET 0.249234 0.008986 -0.001171
								CHANNELS 3 Zrotation Yrotation Xrotation
								End Site
								{
									OFFSET 0.000000 0.000000 0.000000
								}
							}
						}
					}
				}
				JOINT RightShoulder
				{
					OFFSET -0.081759 0.118833 -0.038615
					CHANNELS 3 Zrotation Yrotation Xrotation
					JOINT RightArm
					{
						OFFSET -0.096012 0.032551 -0.009143
						CHANNELS 3 Zrotation Yrotation Xrotation
						JOINT RightForeArm
						{
							OFFSET -0.253742 -0.013329 -0.021401
							CHANNELS 3 Zrotation Yrotation Xrotation
							JOINT RightHand
							{
								OFFSET -0.255298 0.007772 -0.005559
								CHANNELS 3 Zrotation Yrotation Xrotation
								End Site
								{
									OFFSET 0.000000 0.000000 0.000000
								}
							}
						}
					}
				}
			}
		}
	}
}
MOTION
Frames: 16
Frame Time: 0.050000
0.000000 0.505814 0.000000 -4.566083 -10.523576 1.649716 8.912318 0.209830 -19.592028 4.025487 -4.212250 118.537917 -5.750177 -22.581732 -9.358642 0.000000 0.000000 0.000000 -6.197777 1.715645 -22.017236 8.544635 2.914124 118.795717 -1.754947 -2.053243 -6.397087 0.000000 0.000000 0.000000 4.160043 -1.357793 23.042540 -6.889016 2.138916 -22.293330 0.410553 9.059785 22.968769 10.385624 -1.961911 -36.961723 0.000000 0.000000 0.000000 -34.308375 -16.728836 8.158872 -30.495787 -12.574429 -1.689938 1.698206 -32.013797 0.725689 0.000000 0.000000 0.000000 42.526664 8.777878 5.551552 37.054640 13.099291 -1.882888 -8.630109 37.366809 -0.956346 0.000000 0.000000 0.000000 
-0.000778 0.500206 0.002553 -5.455933 -12.563431 2.286819 9.068078 0.335525 -19.039116 5.448105 -5.166910 119.885077 -7.486482 -24.012123 -6.476002 0.000000 0.000000 0.000000 -5.162454 1.969603 -22.175964 10.203160 1.488535 120.653365 -1.419324 -2.427756 -3.379650 0.000000 0.000000 0.000000 5.156328 -1.441095 22.105151 -9.317752 2.762327 -22.157544 2.272424 9.163498 23.944313 9.238004 -1.452755 -38.339334 0.000000 0.000000 0.000000 -36.412156 -17.306711 9.399293 -27.518547 -13.127871 -1.661221 1.781666 -31.697455 0.690203 0.000000 0.000000 0.000000 41.986832 9.156354 5.073484 36.066182 11.999222 -1.967324 -8.142352 37.259608 -0.925305 0.000000 0.000000 0.000000 
-0.001366 0.501114 0.003679 -5.683675 -12.833031 2.652366 10.117424 0.535007 -18.447870 6.062164 -5.969157 119.314842 -9.969037 -23.453785 -0.807451 0.000000 0.000000 0.000000 -3.523566 2.038465 -20.770596 11.885198 -1.968135 120.665129 -3.777110 -8.180048 -7.248770 0.000000 0.000000 0.000000 6.953340 -1.743542 21.252705 -8.411250 2.579041 -20.241876 -0.039059 9.636571 23.426553 9.272122 -1.200422 -40.175805 0.000000 0.000000 0.000000 -35.802186 -18.773384 10.321849 -27.382795 -13.935970 -1.505800 1.801557 -29.909221 0.634132 0.000000 0.000000 0.000000 42.364380 10.812096 6.750231 34.175431 12.255713 -1.947453 -11.797195 37.510475 -2.117504 0.000000 0.000000 0.000000 
-0.001722 0.499125 0.003753 -5.841785 -14.832489 2.517972 9.051084 0.412752 -17.626973 6.675468 -4.887422 119.768686 -10.911031 -23.170020 1.509198 0.000000 0.000000 0.000000 -3.066794 2.200034 -21.058362 12.740221 -1.660168 121.918466 -3.881071 -8.858846 -6.197505 0.000000 0.000000 0.000000 7.172923 -1.685305 21.321791 -8.876224 2.624603 -21.708920 0.362351 10.923363 24.447482 9.368321 -0.978780 -42.151012 0.000000 0.000000 0.000000 -35.908717 -18.653269 10.296957 -26.436976 -14.956417 -1.352800 1.722849 -29.252520 0.637433 0.000000 0.000000 0.000000 41.591774 9.035502 5.286710 34.351759 12.532943 -1.964730 -10.547804 38.004530 -1.694241 0.000000 0.000000 0.000000 
-0.002023 0.500118 0.002920 -6.107657 -15.473647 2.429455 8.941454 0.414735 -17.275617 7.174115 -5.148987 119.571589 -9.057593 -23.738559 -2.748908 0.000000 0.000000 0.000000 -2.970838 2.144841 -20.405526 13.202249 -1.910144 121.825628 -4.432314 -9.921718 -10.624312 0.000000 0.000000 0.000000 7.503307 -1.684536 20.702850 -8.819782 2.651915 -20.449419 0.223888 10.673348 23.623662 10.130690 -1.465848 -41.113812 0.000000 0.000000 0.000000 -36.206001 -19.487571 11.220623 -26.040484 -15.209097 -1.307015 2.649160 -26.720036 0.359878 0.000000 0.000000 0.000000 41.213452 9.035258 4.847094 34.069832 12.283672 -1.840159 -11.959214 37.127589 -2.155507 0.000000 0.000000 0.000000 
-0.002048 0.499721 0.001231 -6.491325 -16.170998 2.206330 9.509706 0.543193 -16.681457 7.235136 -4.605655 119.782561 -8.332624 -23.443788 -3.981509 0.000000 0.000000 0.000000 -2.891375 2.213521 -20.700570 13.023639 -0.736878 122.406544 -4.505004 -10.214635 -10.793945 0.000000 0.000000 0.000000 7.770008 -1.721514 21.234140 -8.999131 2.685852 -20.611712 0.493060 10.504933 24.158779 9.463424 -1.293116 -41.090383 0.000000 0.000000 0.000000 -35.899646 -20.108806 11.948933 -26.793008 -16.941735 -1.098501 3.395851 -24.005627 0.172489 0.000000 0.000000 0.000000 40.969709 8.999952 4.493306 33.717673 12.263256 -1.784985 -12.054974 37.124965 -2.226879 0.000000 0.000000 0.000000 
-0.002000 0.500434 -0.000805 -6.511953 -16.910786 2.141772 9.233754 0.551115 -17.113534 7.906170 -5.288930 120.062587 -7.823097 -24.792277 -5.994251 0.000000 0.000000 0.000000 -2.678301 2.319288 -21.107516 13.349932 -0.692728 122.901083 -4.513002 -10.062643 -12.936994 0.000000 0.000000 0.000000 7.820704 -1.699341 21.389947 -9.178679 2.714572 -20.855069 0.537744 10.218431 24.341287 9.601760 -1.521568 -40.559290 0.000000 0.000000 0.000000 -35.716274 -19.837784 12.101360 -26.952909 -17.700473 -1.057558 3.472808 -22.799649 0.155178 0.000000 0.000000 0.000000 40.778388 8.660200 3.772649 33.677131 12.097523 -1.713716 -11.607605 36.839349 -2.109141 0.000000 0.000000 0.000000 
-0.002023 0.499646 -0.002513 -6.468717 -17.656274 2.009277 8.994316 0.565187 -17.517935 8.271764 -5.322577 120.351380 -8.101394 -24.580357 -5.179878 0.000000 0.000000 0.000000 -2.444147 2.391426 -21.252611 13.479774 -0.120063 123.400571 -4.613028 -10.452197 -13.871366 0.000000 0.000000 0.000000 7.264427 -1.574331 21.812036 -8.856368 2.591730 -21.227755 0.800995 10.024195 24.801617 9.330262 -1.559716 -40.240031 0.000000 0.000000 0.000000 -35.163732 -19.962905 12.469751 -27.486071 -18.280722 -1.059581 4.089871 -22.146876 0.041909 0.000000 0.000000 0.000000 41.062561 9.095802 3.746414 32.960075 12.472385 -1.530890 -11.928300 35.432562 -2.161368 0.000000 0.000000 0.000000 
-0.002206 0.498408 -0.003454 -6.497912 -18.584431 1.703838 9.048532 0.637531 -17.569732 8.765795 -5.488233 120.753730 -8.267352 -24.633947 -4.780230 0.000000 0.000000 0.000000 -2.527056 2.465218 -21.627739 13.700944 0.403593 123.989951 -4.409040 -9.993533 -12.977998 0.000000 0.000000 0.000000 7.222058 -1.520203 22.009349 -9.145222 2.668442 -21.025599 1.113037 10.139714 24.710281 9.346312 -1.669767 -39.873970 0.000000 0.000000 0.000000 -35.151766 -20.100784 12.757732 -27.659180 -18.644746 -1.026619 3.603814 -21.939891 0.132514 0.000000 0.000000 0.000000 41.541329 9.279353 3.633604 32.670120 12.810574 -1.368689 -11.957327 33.288391 -2.045925 0.000000 0.000000 0.000000 
-0.002612 0.496803 -0.003470 -6.436947 -19.405763 1.369429 8.711950 0.603646 -17.283755 8.870143 -4.771811 120.996217 -7.976983 -23.749099 -4.620419 0.000000 0.000000 0.000000 -2.775575 2.439985 -21.505367 13.726055 1.467728 124.197297 -4.164771 -9.365696 -11.925738 0.000000 0.000000 0.000000 6.985164 -1.430789 22.176173 -9.129258 2.646979 -21.130204 1.342605 9.985769 24.891447 8.981463 -1.663742 -39.503171 0.000000 0.000000 0.000000 -35.310866 -19.861654 12.931476 -27.760171 -18.909636 -1.064616 3.318722 -21.877016 0.189578 0.000000 0.000000 0.000000 42.239475 9.788222 3.638987 32.356897 13.237589 -1.155610 -11.453072 30.984838 -1.786979 0.000000 0.000000 0.000000 
-0.003190 0.494662 -0.002730 -6.528756 -19.782187 1.020589 8.582847 0.568998 -16.617443 9.406412 -5.441968 120.868949 -9.138905 -24.564592 -2.882145 0.000000 0.000000 0.000000 -3.006177 2.280075 -20.560063 13.443959 2.875572 124.010479 -3.807997 -8.203051 -11.480442 0.000000 0.000000 0.000000 7.273919 -1.461431 22.371169 -9.307883 2.700435 -21.037992 1.552069 9.904864 24.864817 8.855439 -1.647892 -39.499310 0.000000 0.000000 0.000000 -35.423052 -20.190284 13.311145 -28.001015 -18.499814 -1.161618 2.788105 -22.462104 0.294948 0.000000 0.000000 0.000000 43.067545 9.986836 3.624149 32.539018 13.565878 -1.023177 -11.306541 28.236562 -1.573199 0.000000 0.000000 0.000000 
-0.003838 0.492592 -0.001752 -6.674579 -20.206752 0.578561 8.434191 0.541322 -16.039759 9.611518 -5.554652 121.310928 -9.482938 -25.216852 -2.657408 0.000000 0.000000 0.000000 -3.032951 2.145280 -19.587815 13.265768 4.058741 124.063165 -3.551654 -7.382632 -11.354664 0.000000 0.000000 0.000000 7.309801 -1.444209 22.723573 -9.364926 2.717867 -20.894755 1.733827 9.782331 24.806550 8.381696 -1.419651 -39.993041 0.000000 0.000000 0.000000 -35.610113 -19.676843 13.105626 -28.238201 -18.723061 -1.151485 2.549646 -22.856062 0.355136 0.000000 0.000000 0.000000 44.131612 10.276733 3.636028 32.362667 13.933497 -0.859368 -11.308702 25.601688 -1.409637 0.000000 0.000000 0.000000 
-0.004368 0.490534 -0.001107 -6.952436 -20.354230 0.572815 8.398839 0.538131 -15.947401 9.652679 -5.739308 121.900894 -10.237546 -26.140061 -1.854237 0.000000 0.000000 0.000000 -3.135863 2.102291 -19.332992 13.113427 4.658820 124.175869 -3.283285 -6.498289 -11.171536 0.000000 0.000000 0.000000 7.435692 -1.462771 22.896183 -9.313051 2.693933 -21.091094 2.014157 10.014954 25.039827 8.500268 -1.419665 -40.223872 0.000000 0.000000 0.000000 -35.499289 -19.755637 13.088034 -28.405479 -18.539265 -1.180951 1.839319 -23.887086 0.521796 0.000000 0.000000 0.000000 44.622638 10.217556 3.674243 32.549253 14.584505 -0.731927 -11.142278 23.552857 -1.234317 0.000000 0.000000 0.000000 
-0.004749 0.488911 -0.000956 -7.046907 -20.716353 0.161270 8.454865 0.570242 -15.834978 9.996756 -6.431774 122.537065 -11.270254 -26.521116 -0.141033 0.000000 0.000000 0.000000 -3.176655 2.026839 -18.777186 12.938807 5.681704 124.423742 -2.874984 -5.323642 -10.384230 0.000000 0.000000 0.000000 7.320107 -1.422317 23.524033 -9.213202 2.654272 -21.347401 2.230115 10.187828 25.424186 8.240968 -1.248098 -40.795060 0.000000 0.000000 0.000000 -35.709258 -19.412215 12.886518 -28.408485 -18.850132 -1.149012 1.400389 -24.583783 0.637386 0.000000 0.000000 0.000000 44.841945 10.625479 4.039587 32.388753 15.704072 -0.487315 -11.358171 21.410034 -1.133503 0.000000 0.000000 0.000000 
-0.005063 0.488737 -0.000981 -7.294109 -21.106824 0.071222 8.353542 0.585590 -16.122095 10.171668 -6.668031 123.102181 -11.561251 -27.586150 -0.335859 0.000000 0.000000 0.000000 -3.173291 2.028376 -18.720704 12.825844 6.515683 124.899831 -2.536139 -4.166802 -10.604559 0.000000 0.000000 0.000000 7.313973 -1.398851 23.749899 -9.518343 2.757927 -20.996395 2.517535 10.462841 25.379112 8.138653 -1.078674 -41.599948 0.000000 0.000000 0.000000 -35.602498 -19.851013 13.139039 -28.266785 -19.032588 -1.084779 0.757117 -25.038045 0.782915 0.000000 0.000000 0.000000 44.963627 11.123434 4.528914 32.276704 16.716108 -0.250776 -11.360406 19.908212 -1.036361 0.000000 0.000000 0.000000 
-0.005609 0.489791 -0.000711 -7.460295 -21.166568 0.166582 8.280654 0.581002 -16.256374 10.154925 -6.518401 123.059868 -11.578974 -26.783978 0.283101 0.000000 0.000000 0.000000 -2.913150 1.998619 -18.316782 12.717258 7.004430 124.657947 -2.198979 -3.565206 -8.725159 0.000000 0.000000 0.000000 7.049791 -1.351435 24.143210 -9.549569 2.734727 -21.688025 2.465542 10.614556 25.895447 8.244016 -1.122492 -41.617462 0.000000 0.000000 0.000000 -36.038393 -20.021249 13.322734 -27.214405 -19.043594 -1.116737 0.399348 -25.632607 0.869131 0.000000 0.000000 0.000000 45.046805 11.465249 4.928093 31.947091 17.116771 -0.221888 -10.775901 19.968464 -0.949982 0.000000 0.000000 0.000000 
